<svg xmlns="http://www.w3.org/2000/svg" viewBox="0 0 128 128" width="64" height="64">
  <rect width="128" height="128" rx="20" fill="#20222B"/>
  <circle cx="64" cy="64" r="46" fill="#FFD21E"/>
  <circle cx="48" cy="54" r="6" fill="#20222B"/>
  <circle cx="80" cy="54" r="6" fill="#20222B"/>
  <path d="M44 76c5 10 35 10 40 0" stroke="#20222B" stroke-width="5" stroke-linecap="round" fill="none"/>
  <path d="M26 66c-8 0-14 6-14 14s6 14 14 14c4 0 8-2 10-5l-4-4c-1 2-4 3-6 3-4 0-8-4-8-8s4-8 8-8h10v-6H26z" fill="#FFA800"/>
  <path d="M102 66c8 0 14 6 14 14s-6 14-14 14c-4 0-8-2-10-5l4-4c1 2 4 3 6 3 4 0 8-4 8-8s-4-8-8-8H92v-6h10z" fill="#FFA800"/>
</svg>