<svg xmlns="http://www.w3.org/2000/svg" viewBox="0 0 128 128" width="64" height="64">
  <rect width="128" height="128" rx="20" fill="#071326"/>
  <!-- Gear Teeth Outer -->
  <path fill="#F59E0B" d="M64 22l4 6h8l2-7 7 3-1 8 6 4 6-4 5 5-4 6 4 6 8-1 3 7-7 2v8l7 2-3 7-8-1-4 6 4 6-5 5-6-4-6 4 1 8-7 3-2-7h-8l-4 6-7-3 1-8-6-4-6 4-5-5 4-6-4-6-8 1-3-7 7-2v-8l-7-2 3-7 8 1 4-6-4-6 5-5 6 4 6-4-1-8 7-3z"/>
  <!-- Inner Cutout -->
  <circle cx="64" cy="56" r="22" fill="#071326"/>
  <circle cx="64" cy="56" r="18" fill="#0F2445"/>
  <!-- Innovation Flask / Bulb icon in Center -->
  <path fill="#38BDF8" d="M61 44h6v7l6 10c1 2 0 4-2 4H57c-2 0-3-2-2-4l6-10v-7z"/>
  <circle cx="64" cy="59" r="3" fill="#F59E0B"/>
  <!-- Text Label -->
  <text x="64" y="102" font-family="-apple-system, BlinkMacSystemFont, 'Segoe UI', Roboto, sans-serif" font-size="11" font-weight="800" fill="#F59E0B" text-anchor="middle" letter-spacing="1.5">TINKERING LAB</text>
  <text x="64" y="116" font-family="-apple-system, BlinkMacSystemFont, 'Segoe UI', Roboto, sans-serif" font-size="8.5" font-weight="700" fill="#94A3B8" text-anchor="middle" letter-spacing="1">IIT ROORKEE</text>
</svg>